<?xml version="1.0" encoding="UTF-8"?>
<svg width="24px" height="24px" viewBox="0 0 24 24" version="1.1" xmlns="http://www.w3.org/2000/svg" xmlns:xlink="http://www.w3.org/1999/xlink">
    <title>icon-生产</title>
    <g id="icon-生产" stroke="none" stroke-width="1" fill="none" fill-rule="evenodd">
        <g id="编组备份" transform="translate(1.500000, 4.000000)" fill-rule="nonzero">
            <path d="M2.73025596,11.8073846 L2.73025596,14.9827692 L11.4066944,14.9827692 L11.437541,11.8043077 C11.437541,11.2061538 10.70641,10.6984615 10.072413,10.6984615 L4.05731787,10.6984615 C3.42332094,10.6984615 2.73025596,11.2061538 2.73025596,11.8073846 L2.73025596,11.8073846 Z M13.8626121,9.90153847 L13.8626121,14.9821538 L18.2841829,14.9821538 L18.2841829,9.90153847 C18.2841829,9.31076923 17.7538832,8.67323077 17.1257931,8.67323077 L15.0203457,8.67323077 C14.3929119,8.67323077 13.8626121,9.31138461 13.8626121,9.90153847 L13.8626121,9.90153847 Z M14.848392,2.65107692 L14.848392,7.81107692 C14.9225552,7.80061539 14.9973748,7.79446153 15.0741632,7.79446153 L17.0109385,7.79446153 C17.0864144,7.79446153 17.2104572,7.80061538 17.2852767,7.81107692 L17.2852767,2.65107692 C17.2852767,2.38523077 17.125793,1.87876923 16.7326624,1.87876923 L15.309779,1.87876923 C14.848392,1.87876923 14.848392,2.38953847 14.848392,2.65107692 L14.848392,2.65107692 Z M13.9899366,3.50584616 L13.9899366,2.46584616 C13.9899366,2.26892308 14.058193,1.89415384 14.3134981,1.76307692 L8.91271057,1.79384616 L8.91074163,3.57661539 L13.9899366,3.50584616 L13.9899366,3.50584616 Z M8.12054255,4.12307692 L8.12054255,1.23692308 C8.11702118,1.01739137 7.928072,0.840224863 7.69394006,0.836923078 L6.43579085,0.836923078 C6.20165891,0.840224863 6.01270973,1.01739137 6.00918836,1.23692308 L6.00918836,4.15384616 C6.01235827,4.37361814 6.20140781,4.55115145 6.43579085,4.55446153 L7.69525268,4.55446153 C7.93415007,4.55446153 8.12185517,4.36492306 8.12185517,4.12369231 L8.12054255,4.12307692 Z M19.1564209,14.9821538 L20.0273463,14.9821538 C20.5655218,14.9821538 21,15.0369231 21,15.4603077 C21,15.8836923 20.5366441,16 20.0273463,16 L0.974622624,16 C0.58936776,16 0,15.9655385 0,15.4603077 C0,14.9544615 0.685189229,14.9821538 0.974622624,14.9821538 L1.85408006,14.9821538 L1.85408006,11.7255385 C1.85408006,10.7470769 2.73353752,9.92 3.7744476,9.92 L10.3552833,9.92 C11.3961934,9.92 12.2749945,10.7470769 12.2749945,11.7255385 L12.242179,14.9821538 L12.9903741,14.9821538 L12.9903741,9.70830769 C12.9903741,9.04 13.3992562,8.44307692 13.9899366,8.13107692 L13.9899366,4.26646153 L8.89302122,4.34276923 C8.87136294,4.9243077 8.37781667,5.39076923 7.77401006,5.39076923 L7.36840954,5.39076923 L7.36840954,6.50461539 C7.36065949,6.66502147 7.21970721,6.79133238 7.04845767,6.79133238 C6.87720813,6.79133238 6.73625586,6.66502147 6.7285058,6.50461539 L6.7285058,5.39076923 L6.35572084,5.39076923 C5.73878801,5.39076923 5.23605337,4.91815384 5.23605339,4.33723077 L5.23605339,1.05353847 C5.23605339,0.472615391 5.7381317,0 6.35572084,0 L7.77335376,0 C8.37190987,0 8.86151827,0.443076922 8.89236492,0.998769234 L15.2113323,0.958769234 L15.2553052,0.958153844 L16.8914898,0.958153844 C17.2287439,0.955148445 17.5530618,1.07969436 17.7911764,1.30365517 C18.029291,1.52761598 18.1611116,1.83209534 18.1568585,2.14830769 L18.1568585,8.13107692 C18.7475388,8.44307692 19.1564209,9.04 19.1564209,9.70769231 L19.1564209,14.9821538 L19.1564209,14.9821538 Z M9.20936338,13.4092308 C9.27236929,13.3569231 9.381317,13.1138462 9.381317,12.7273846 C9.381317,12.3507692 9.25793042,12.1058461 9.1936119,12.0443077 L4.86326843,12.0443077 C4.79894991,12.1058462 4.67556334,12.3507692 4.67556334,12.7273846 C4.67556334,13.1027692 4.79894991,13.3483077 4.86326843,13.4098462 L9.20936338,13.4098462 L9.20936338,13.4092308 Z M9.22839642,11.4424615 C9.74294465,11.4424615 10.0212207,12.1046154 10.0212207,12.7273846 C10.0212207,13.4953846 9.70225334,14.0116923 9.22839642,14.0116923 L4.82848392,14.0116923 C4.31393568,14.0116923 4.03631591,13.3495385 4.03631591,12.7273846 C4.03631591,12.1046154 4.31393568,11.4424615 4.82848392,11.4424615 L9.22839642,11.4424615 L9.22839642,11.4424615 Z" id="形状" fill="#2C2C2C"></path>
            <path d="M9.22839642,11.4424615 C9.74294465,11.4424615 10.0212207,12.1046154 10.0212207,12.7273846 C10.0212207,13.4953846 9.70225334,14.0116923 9.22839642,14.0116923 L4.82848392,14.0116923 C4.31393568,14.0116923 4.03631591,13.3495385 4.03631591,12.7273846 C4.03631591,12.1046154 4.31393568,11.4424615 4.82848392,11.4424615 L9.22839642,11.4424615 L9.22839642,11.4424615 Z" id="路径" fill="#2979FF"></path>
            <path d="M9.20936338,13.4092308 C9.27236929,13.3569231 9.381317,13.1138462 9.381317,12.7273846 C9.381317,12.3507692 9.25793042,12.1058461 9.1936119,12.0443077 L4.86326843,12.0443077 C4.79894991,12.1058462 4.67556334,12.3507692 4.67556334,12.7273846 C4.67556334,13.1027692 4.79894991,13.3483077 4.86326843,13.4098462 L9.20936338,13.4098462 L9.20936338,13.4092308 Z" id="路径" fill="#FFFFFF"></path>
        </g>
    </g>
</svg>