<?xml version="1.0" encoding="UTF-8"?>
<svg width="24px" height="24px" viewBox="0 0 24 24" version="1.1" xmlns="http://www.w3.org/2000/svg" xmlns:xlink="http://www.w3.org/1999/xlink">
    <title>icon-收藏菜单</title>
    <g id="icon-收藏菜单" stroke="none" stroke-width="1" fill="none" fill-rule="evenodd">
        <g transform="translate(1.000000, 1.000000)">
            <path d="M10.8687879,1.53055794 C11.3256535,1.62332023 11.389714,1.68738071 11.4339433,1.76465297 L11.4339433,1.76465297 L13.8643848,6.01084147 C14.0775047,6.38318012 14.4398554,6.64644332 14.8598282,6.73407343 L14.8598282,6.73407343 L19.6492411,7.73341626 C19.7844014,7.76161835 19.8953349,7.84193506 19.9654278,7.94899132 C20.0355207,8.05604758 20.064773,8.18984338 20.0365709,8.32500364 C20.0183849,8.41216151 19.9772555,8.49288242 19.9174328,8.55882537 L19.9174328,8.55882537 L16.6301153,12.182457 C16.3418579,12.5002051 16.2034522,12.9261739 16.2498898,13.3526709 L16.2498898,13.3526709 L16.7794682,18.2164873 C16.7944133,18.3537472 16.7523079,18.4840705 16.6721512,18.583815 C16.5919946,18.6835595 16.4737867,18.7527253 16.3365267,18.7676703 C16.2480148,18.7773076 16.158535,18.7631354 16.0773333,18.7266181 L16.0773333,18.7266181 L11.6152179,16.7199572 C11.2239451,16.5439976 10.7760549,16.5439976 10.3847821,16.7199572 L10.3847821,16.7199572 L5.92266668,18.7266181 C5.79674296,18.7832474 5.6597869,18.7834749 5.54015446,18.7380641 C5.42052201,18.6926534 5.31821319,18.6016044 5.26158395,18.4756806 C5.22506668,18.3944789 5.21089447,18.3049991 5.22053175,18.2164873 L5.22053175,18.2164873 L5.75011024,13.3526709 C5.79654778,12.9261739 5.65814212,12.5002051 5.3698847,12.182457 L5.3698847,12.182457 L2.08256719,8.55882537 C1.98979701,8.4565642 1.94725891,8.32638154 1.95347865,8.19857163 C1.95969838,8.07076172 2.01467596,7.94532456 2.11693713,7.85255439 C2.18288008,7.79273169 2.26360099,7.75160233 2.35075886,7.73341626 L2.35075886,7.73341626 L7.14017184,6.73407343 C7.56014461,6.64644332 7.92249533,6.38318012 8.13561523,6.01084147 L8.13561523,6.01084147 L10.5660567,1.76465297 C10.6346453,1.64482285 10.7453114,1.56413806 10.8687879,1.53055794 Z" id="星形" stroke="#242424"></path>
            <path d="M11.298746,6.81580603 L12.3452493,8.69304291 C12.372037,8.74109521 12.4174356,8.77599121 12.4707612,8.78951858 L14.8002683,9.38045643 L14.8002683,9.38045643" id="路径-4" stroke="#2979FF" stroke-linecap="round"></path>
        </g>
    </g>
</svg>