<?xml version="1.0" encoding="UTF-8"?>
<svg width="24px" height="24px" viewBox="0 0 24 24" version="1.1" xmlns="http://www.w3.org/2000/svg" xmlns:xlink="http://www.w3.org/1999/xlink">
    <title>icon-后台管理</title>
    <g id="icon-后台管理" stroke="none" stroke-width="1" fill="none" fill-rule="evenodd">
        <g id="编组备份-3" transform="translate(3.000000, 3.000000)" fill-rule="nonzero">
            <path d="M14.3997,16.7997 C14.7259261,16.8069943 14.9865809,17.0735423 14.9865809,17.39985 C14.9865809,17.7261577 14.7259261,17.9927057 14.3997,18 L3.6,18 C3.27377386,17.9927057 3.01311905,17.7261577 3.01311905,17.39985 C3.01311905,17.0735423 3.27377386,16.8069943 3.6,16.7997 L14.4,16.7997 L14.3997,16.7997 Z M14.9997,0 C16.6554,0 18,1.25519999 18,2.799 L18,12.8001 C17.9976,14.3442 16.653,15.5991001 14.9997,15.5991001 L3,15.5991001 C1.3473,15.5994 0,14.3445 0,12.8004 L0,2.79930001 C0,1.25519999 1.34699999,0 3.00029999,0 L15,0 L14.9997,0 Z M14.9997,1.20029999 L3.00000001,1.20029999 C2.00670001,1.20029999 1.20000001,1.91729999 1.20000001,2.79930001 L1.20000001,12.8001 C1.20000001,13.6818 2.00670001,14.3991 3.00000001,14.3991 L14.9991,14.3991 C15.9927,14.3991 16.7994003,13.6818 16.7994003,12.8001 L16.7994003,2.79930001 C16.8,1.91759999 15.993,1.20000001 15,1.20000001 L14.9997,1.20029999 Z M10.1745,5.45700001 L10.2843,5.52000001 C10.4868,5.64330001 10.5591,5.91600001 10.4466,6.13290001 L8.7066,9.369 C8.6013,9.5715 8.36940001,9.6534 8.17259999,9.56489999 L8.12489999,9.53969999 L8.1261,9.53969999 L8.01509999,9.47669999 C7.81259999,9.35309999 7.74029999,9.08069999 7.85280001,8.86350001 L9.59279999,5.6277 C9.711,5.41319999 9.96899999,5.33730001 10.1745,5.4567 L10.1745,5.45700001 Z M4.93439999,5.53919999 C5.08911768,5.3679457 5.35288732,5.35322492 5.52569999,5.5062 L5.56590001,5.54520001 C5.72550001,5.71920001 5.73450001,5.99280001 5.59409999,6.17819999 L5.56169999,6.21660001 L4.365,7.50000001 L5.5701,8.784 C5.74338822,8.97606752 5.74312895,9.26814044 5.56950001,9.4599 C5.40750001,9.63390001 5.1516,9.6453 4.97730001,9.4941 L4.94130001,9.45930001 L3.43139999,7.8462 C3.26930965,7.66296977 3.25573181,7.39191118 3.39870001,7.19339999 L3.4317,7.15350001 L4.9347,5.5386 L4.93439999,5.53919999 Z M12.4308,5.53980001 C12.5853195,5.36788711 12.8495632,5.35275302 13.0227,5.50589999 L13.0587,5.54070001 L14.5683,7.16340001 C14.6553,7.2495 14.7033,7.37220001 14.6994,7.49939999 C14.7012,7.6113 14.6664,7.7193 14.6028,7.80600001 L14.5683,7.84740001 L13.0587,9.45840001 C12.8958,9.63510001 12.6426,9.64680001 12.4665,9.49379999 L12.4275,9.4554 C12.2690169,9.27826163 12.2566161,9.01421192 12.3978,8.82300001 L12.4302,8.78459999 L13.6263,7.49939999 L12.4302,6.21599999 C12.2568702,6.02383371 12.2571295,5.7316584 12.4308,5.53980001 Z" id="形状" fill="#242424"></path>
            <path d="M10.1745,5.45700001 L10.2843,5.52000001 C10.4868,5.64330001 10.5591,5.91600001 10.4466,6.13290001 L8.7066,9.369 C8.6013,9.5715 8.36940001,9.6534 8.17259999,9.56489999 L8.12489999,9.53969999 L8.1261,9.53969999 L8.01509999,9.47669999 C7.81259999,9.35309999 7.74029999,9.08069999 7.85280001,8.86350001 L9.59279999,5.6277 C9.711,5.41319999 9.96899999,5.33730001 10.1745,5.4567 L10.1745,5.45700001 Z" id="路径" fill="#2979FF"></path>
            <path d="M4.93439999,5.53919999 C5.08911768,5.3679457 5.35288732,5.35322492 5.52569999,5.5062 L5.56590001,5.54520001 C5.72550001,5.71920001 5.73450001,5.99280001 5.59409999,6.17819999 L5.56169999,6.21660001 L4.365,7.50000001 L5.5701,8.784 C5.74338822,8.97606752 5.74312895,9.26814044 5.56950001,9.4599 C5.40750001,9.63390001 5.1516,9.6453 4.97730001,9.4941 L4.94130001,9.45930001 L3.43139999,7.8462 C3.26930965,7.66296977 3.25573181,7.39191118 3.39870001,7.19339999 L3.4317,7.15350001 L4.9347,5.5386 L4.93439999,5.53919999 Z" id="路径" fill="#2979FF"></path>
            <path d="M12.4308,5.53980001 C12.5853195,5.36788711 12.8495632,5.35275302 13.0227,5.50589999 L13.0587,5.54070001 L14.5683,7.16340001 C14.6553,7.2495 14.7033,7.37220001 14.6994,7.49939999 C14.7012,7.6113 14.6664,7.7193 14.6028,7.80600001 L14.5683,7.84740001 L13.0587,9.45840001 C12.8958,9.63510001 12.6426,9.64680001 12.4665,9.49379999 L12.4275,9.4554 C12.2690169,9.27826163 12.2566161,9.01421192 12.3978,8.82300001 L12.4302,8.78459999 L13.6263,7.49939999 L12.4302,6.21599999 C12.2568702,6.02383371 12.2571295,5.7316584 12.4308,5.53980001 Z" id="路径" fill="#2979FF"></path>
        </g>
    </g>
</svg>