<?xml version="1.0" encoding="UTF-8"?>
<svg width="24px" height="24px" viewBox="0 0 24 24" version="1.1" xmlns="http://www.w3.org/2000/svg" xmlns:xlink="http://www.w3.org/1999/xlink">
    <title>icon-产线一览</title>
    <g id="icon-产线一览" stroke="none" stroke-width="1" fill="none" fill-rule="evenodd">
        <g id="编组-2" transform="translate(3.000000, 4.000000)" fill-rule="nonzero">
            <path d="M16,0 C17.1045695,0 18,0.8954305 18,2 L18,12 C18,13.1045695 17.1045695,14 16,14 L2,14 C0.8954305,14 0,13.1045695 0,12 L0,2 C0,0.8954305 0.8954305,0 2,0 L16,0 Z M16,1 L2,1 C1.48716416,1 1.06449284,1.38604019 1.00672773,1.88337887 L1,2 L1,12 C1,12.5128358 1.38604019,12.9355072 1.88337887,12.9932723 L2,13 L16,13 C16.5128358,13 16.9355072,12.6139598 16.9932723,12.1166211 L17,12 L17,2 C17,1.48716416 16.6139598,1.06449284 16.1166211,1.00672773 L16,1 Z" id="矩形" fill="#242424"></path>
            <path d="M13.5,5 C13.7761424,5 14,5.22385763 14,5.5 L14,11.5 C14,11.7761424 13.7761424,12 13.5,12 C13.2238576,12 13,11.7761424 13,11.5 L13,5.5 C13,5.22385763 13.2238576,5 13.5,5 Z" id="矩形" fill="#2979FF"></path>
            <path d="M9,3 C9.27614237,3 9.5,3.22385763 9.5,3.5 L9.5,11.5 C9.5,11.7761424 9.27614237,12 9,12 C8.72385763,12 8.5,11.7761424 8.5,11.5 L8.5,3.5 C8.5,3.22385763 8.72385763,3 9,3 Z" id="矩形备份" fill="#2979FF"></path>
            <path d="M4.5,7 C4.77614237,7 5,7.22385763 5,7.5 L5,11.5 C5,11.7761424 4.77614237,12 4.5,12 C4.22385763,12 4,11.7761424 4,11.5 L4,7.5 C4,7.22385763 4.22385763,7 4.5,7 Z" id="矩形备份-2" fill="#2979FF"></path>
            <path d="M17.5,16 C17.7761424,16 18,16.2238576 18,16.5 C18,16.7761424 17.7761424,17 17.5,17 L0.5,17 C0.223857625,17 0,16.7761424 0,16.5 C0,16.2238576 0.223857625,16 0.5,16 L17.5,16 Z" id="矩形" fill="#242424"></path>
        </g>
    </g>
</svg>