<?xml version="1.0" encoding="UTF-8"?>
<svg width="24px" height="24px" viewBox="0 0 24 24" version="1.1" xmlns="http://www.w3.org/2000/svg" xmlns:xlink="http://www.w3.org/1999/xlink">
    <title>icon-质量</title>
    <g id="icon-质量" stroke="none" stroke-width="1" fill="none" fill-rule="evenodd">
        <g id="编组备份-2" transform="translate(4.000000, 2.000000)" fill-rule="nonzero">
            <path d="M8,1.06238859 L14.9571463,4.22327187 L14.9571463,9.0497703 C14.9571463,11.3399911 14.2076195,13.6302119 12.8238777,15.504029 C11.5554477,17.2453539 9.84498908,18.4945652 8,19.0623886 C6.13579228,18.4945652 4.44455229,17.2453539 3.1761223,15.504029 C1.79238049,13.6302119 1.04285368,11.3399911 1.04285368,9.0497703 L1.04285368,4.22327187 L8,1.06238859 M8,0 L0,3.63636364 L0,9.09090909 C0,14.1354724 3.42081448,18.8413547 8,20 C12.5972851,18.85918 16,14.1354724 16,9.09090909 L16,3.63636364 L8,0 Z M12.3257919,9.96434938 C12.3257919,7.59358289 10.3891403,5.68627451 7.98190045,5.68627451 C5.57466063,5.68627451 3.63800905,7.59358289 3.63800905,9.96434938 C3.63800905,12.3351159 5.57466063,14.2424242 7.98190045,14.2424242 C8.52488688,14.2424242 9.03167421,14.1354724 9.52036199,13.9750446 L10.841629,15.2762923 L11.8733032,14.2602496 L10.8054299,13.2085561 C11.7285068,12.4242424 12.3257919,11.2655971 12.3257919,9.96434938 L12.3257919,9.96434938 Z M7.98190045,12.8163993 C6.38914027,12.8163993 5.08597285,11.5329768 5.08597285,9.96434938 C5.08597285,8.39572193 6.38914027,7.11229947 7.98190045,7.11229947 C9.57466063,7.11229947 10.8778281,8.39572193 10.8778281,9.96434938 C10.8778281,10.8734403 10.4434389,11.6755793 9.77375566,12.1925134 L8.79638009,11.2299465 L7.76470588,12.2459893 L8.32579186,12.798574 C8.21719457,12.798574 8.09049774,12.8163993 7.98190045,12.8163993 L7.98190045,12.8163993 Z" id="形状" fill="#000000"></path>
            <path d="M12.3257919,9.96434938 C12.3257919,7.59358289 10.3891403,5.68627451 7.98190045,5.68627451 C5.57466063,5.68627451 3.63800905,7.59358289 3.63800905,9.96434938 C3.63800905,12.3351159 5.57466063,14.2424242 7.98190045,14.2424242 C8.52488688,14.2424242 9.03167421,14.1354724 9.52036199,13.9750446 L10.841629,15.2762923 L11.8733032,14.2602496 L10.8054299,13.2085561 C11.7285068,12.4242424 12.3257919,11.2655971 12.3257919,9.96434938 L12.3257919,9.96434938 Z" id="路径" fill="#2979FF"></path>
            <path d="M7.98190045,12.9643494 C6.30651584,12.9643494 4.93574661,11.6143494 4.93574661,9.96434938 C4.93574661,8.31434938 6.30651584,6.96434938 7.98190045,6.96434938 C9.65728507,6.96434938 11.0280543,8.31434938 11.0280543,9.96434938 C11.0280543,10.9205994 10.5711312,11.7643494 9.86670814,12.3080994 L8.83863122,11.2955994 L7.75343891,12.3643494 L8.34363122,12.9455994 C8.22940045,12.9455994 8.09613122,12.9643494 7.98190045,12.9643494 L7.98190045,12.9643494 Z" id="路径" fill="#FFFFFF"></path>
        </g>
    </g>
</svg>